<?xml version="1.0" ?><!DOCTYPE svg  PUBLIC '-//W3C//DTD SVG 1.1//EN'  'http://www.w3.org/Graphics/SVG/1.1/DTD/svg11.dtd'><svg aria-labelledby="simpleicons-linux-icon" enable-background="new 0 0 24 24" height="3.33333in" role="img" style="shape-rendering:geometricPrecision; text-rendering:geometricPrecision; image-rendering:optimizeQuality; fill-rule:evenodd; clip-rule:evenodd" version="1.1" viewBox="0 0 3333 3333" width="3.33333in" xml:space="preserve" xmlns="http://www.w3.org/2000/svg" xmlns:xlink="http://www.w3.org/1999/xlink"><defs><style type="text/css">
   <![CDATA[
    .fil0 {fill:black}
    .fil1 {fill:white}
   ]]>
  </style></defs><g id="Layer_x0020_1"><circle class="fil0" cx="1667" cy="1667" r="1667"/><g id="_603495104"><path class="fil1" d="M1705 757c-12,0 -24,1 -36,2 -321,25 -236,364 -241,477 -6,83 -22,148 -79,229 -67,80 -162,208 -206,343 -21,63 -31,127 -22,188 -3,3 -6,5 -8,10 -20,21 -34,46 -50,64 -16,15 -37,20 -61,30 -24,11 -50,21 -65,52 -7,14 -11,30 -10,46 0,15 2,30 4,40 4,30 9,55 3,74 -19,51 -21,86 -8,112 13,25 40,36 71,46 61,15 145,10 210,45 70,35 142,51 199,36 39,-9 73,-35 91,-72 45,0 93,-20 171,-25 53,-5 120,20 196,15 2,10 4,15 8,25l1 0c29,59 84,86 142,82 59,-5 121,-41 171,-99 48,-58 128,-83 181,-114 26,-15 47,-36 49,-65 1,-30 -15,-61 -54,-104l0 -8 -1 0c-13,-15 -19,-40 -25,-70 -7,-30 -14,-60 -38,-79l0 0c-4,-4 -9,-5 -14,-11 -4,-2 -9,-4 -14,-4 32,-97 20,-194 -14,-280 -40,-107 -111,-200 -164,-264 -61,-76 -120,-149 -119,-256 2,-163 18,-464 -268,-465l0 0zm40 258l1 0c16,0 30,5 44,15 15,11 25,25 33,41 8,19 12,34 13,55 0,-2 0,-3 0,-5l0 8c0,-1 0,-1 0,-2l0 -1c0,18 -4,36 -12,53 -3,10 -9,18 -16,25 -2,-1 -4,-2 -6,-3 -8,-3 -15,-5 -22,-10 -5,-2 -11,-4 -17,-5 4,-4 11,-10 14,-15 4,-10 6,-20 7,-30l0 -2c0,-10 -1,-20 -5,-30 -3,-10 -7,-15 -14,-25 -6,-5 -12,-10 -20,-10l-1 0c-7,0 -13,2 -20,10 -7,7 -12,15 -15,25 -4,10 -7,20 -7,30l0 2c0,6 0,13 1,20 -14,-5 -33,-10 -46,-15 0,-5 -1,-10 -1,-15l0 -2c-1,-20 3,-40 11,-58 7,-17 18,-31 33,-41 13,-9 29,-15 45,-15l0 0zm-225 5l3 0c11,0 21,3 30,10 11,10 20,22 26,35 7,15 11,31 12,51l0 0c1,10 1,15 0,20l0 6c-2,1 -4,2 -6,2 -12,4 -21,10 -30,15 1,-6 1,-13 0,-20l0 -1c-1,-10 -3,-15 -6,-25 -2,-8 -7,-15 -13,-21 -3,-3 -8,-5 -14,-4l-1 0c-6,0 -10,3 -14,10 -5,5 -8,13 -9,20 -2,8 -3,17 -2,25l0 1c1,10 3,15 6,25 3,11 7,16 13,21 0,0 1,1 2,2 -5,4 -9,5 -13,10 -3,2 -6,4 -10,5 -8,-9 -15,-20 -21,-30 -7,-16 -11,-34 -12,-51 -1,-17 1,-34 6,-51 5,-14 12,-28 22,-40 9,-10 19,-15 31,-15zm104 129c25,0 56,5 92,30 23,15 40,21 80,36l0 0c20,10 31,20 37,30l0 -10c5,11 6,24 1,36 -9,23 -39,48 -81,64l0 0c-20,10 -38,25 -58,35 -21,10 -45,22 -77,20 -12,1 -23,-1 -34,-5 -8,-4 -17,-9 -25,-15 -14,-10 -27,-25 -46,-35l0 -1 0 0c-31,-18 -47,-38 -52,-53 -5,-21 -1,-36 14,-46 17,-10 29,-20 37,-25 8,-6 11,-8 13,-10l0 0 0 0c13,-16 33,-36 64,-46 11,-3 22,-5 35,-5l0 0zm212 162c28,108 91,264 132,339 22,41 65,126 84,230 11,-1 24,1 38,4 49,-126 -41,-262 -82,-300 -17,-15 -18,-26 -9,-26 44,41 103,120 124,209 10,41 12,84 2,127 5,2 10,5 15,5 79,40 107,71 94,116l0 -3c-5,0 -9,0 -14,0l-1 0c11,-35 -14,-62 -81,-93 -69,-30 -125,-25 -134,36 -1,3 -1,5 -1,10 -6,2 -11,4 -16,5 -33,20 -50,50 -60,90 -10,40 -13,87 -16,141l0 1c-1,25 -13,63 -24,102 -114,81 -271,117 -405,25 -9,-14 -19,-28 -31,-40 -5,-10 -13,-18 -21,-25 14,0 26,-3 36,-5 11,-6 19,-15 23,-26 8,-20 0,-53 -26,-88 -26,-35 -70,-75 -135,-115 -48,-30 -75,-66 -87,-106 -13,-40 -11,-82 -2,-125 19,-81 67,-160 97,-209 8,-5 3,10 -31,74 -30,57 -86,189 -9,292 3,-75 19,-149 49,-218 43,-97 132,-266 139,-399 4,2 16,10 22,15 16,10 29,25 45,35 16,15 36,26 66,26 3,0 6,0 8,0 31,0 56,-10 76,-20 22,-10 39,-26 56,-31l0 0c36,-10 64,-30 79,-53l0 0zm166 679c3,46 26,95 67,105 45,10 109,-26 136,-58l16 -1c24,-1 43,1 64,20l0 0c16,15 23,41 30,67 6,30 11,59 31,81 37,40 49,68 48,86l0 0 0 1 0 -1c-1,20 -14,30 -38,45 -48,30 -132,54 -186,119 -47,56 -104,86 -154,90 -51,4 -94,-15 -120,-68l0 0c-16,-30 -9,-78 4,-128 14,-51 33,-102 35,-144 3,-54 6,-101 15,-137 9,-36 23,-61 49,-75l3 -2 0 0zm-819 4l0 0c4,0 8,0 12,1 29,4 54,25 78,57l69 126 0 0c18,41 57,81 90,124 33,46 58,86 55,119l0 1c-4,56 -36,87 -85,98 -49,10 -115,0 -181,-35 -74,-41 -161,-36 -217,-46 -28,-5 -46,-15 -55,-30 -8,-15 -8,-46 10,-93l0 -1 0 0c9,-25 2,-57 -2,-85 -5,-30 -7,-53 3,-71 12,-25 30,-30 52,-40 22,-11 49,-16 70,-36l0 0 0 0c19,-20 33,-46 50,-64 15,-15 29,-25 51,-25l0 0zm542 -688c-33,16 -72,41 -113,41 -41,0 -73,-20 -97,-35 -11,-11 -21,-21 -28,-26 -12,-10 -11,-25 -6,-25 9,1 10,10 16,15 7,5 16,15 27,25 22,16 51,36 88,36 37,0 80,-20 106,-36 15,-10 34,-25 49,-35 12,-10 12,-20 21,-20 10,1 3,10 -11,25 -13,10 -35,25 -52,35l0 0 0 0zm-82 -120l0 -1c0,-2 1,-4 2,-4 6,-3 14,-2 20,0 5,0 12,5 11,10 0,4 -6,5 -10,5 -4,0 -7,-3 -11,-5 -4,-1 -11,0 -12,-5l0 0zm-42 0c-1,5 -8,4 -12,5 -4,2 -7,5 -11,5 -4,0 -10,-1 -10,-5 -1,-5 6,-10 11,-10 6,-2 14,-3 20,0 1,1 3,2 2,4l0 1 0 0 0 0z"/></g></g></svg>