<svg xmlns="http://www.w3.org/2000/svg" viewBox="0 0 24 24" fill="currentColor">
  <path d="M23.004 15.588a.995.995 0 1 0 .002-1.99.995.995 0 0 0-.002 1.99zm-.996-3.705h-.85c-.546 0-.84.41-.84 1.14v.59h-1.66v-.59c0-.73-.293-1.14-.84-1.14h-.85v3.85h1.75v-1.36h.85c.546 0 .84.41.84 1.14v.22h1.66v-.22c0-.73.293-1.14.84-1.14h.85v-3.85h-1.75zm-4.335 0h-1.75v3.85h1.75v-3.85zm-2.403 0H12.43v3.85h1.75v-1.36h1.02c.98 0 1.59-.57 1.59-1.24 0-.67-.61-1.25-1.59-1.25zm-1.02 1.11h-.85v.28h.85c.29 0 .5-.16.5-.4s-.21-.4-.5-.4zm-5.182-1.11h-1.75v3.85h1.75v-1.36h1.02c.98 0 1.59-.57 1.59-1.24 0-.67-.61-1.25-1.59-1.25zm-1.02 1.11h-.85v.28h.85c.29 0 .5-.16.5-.4s-.21-.4-.5-.4zm-3.675-1.11H5.597v3.85h1.75v-1.36h1.02c.98 0 1.59-.57 1.59-1.24 0-.67-.61-1.25-1.59-1.25zm-1.02 1.11h-.85v.28h.85c.29 0 .5-.16.5-.4s-.21-.4-.5-.4zM1.5 11.883h1.75v3.85H1.5v-3.85z"/>
</svg>
