<svg xmlns="http://www.w3.org/2000/svg" viewBox="0 0 24 24" fill="currentColor">
  <path d="M18.561 13.158c-1.102 0-2.135-.467-3.074-1.227l.228-1.076.008-.042c.207-1.143.849-3.06 2.839-3.06 1.492 0 2.703 1.212 2.703 2.703-.001 1.489-1.212 2.702-2.704 2.702zm0-8.14c-2.539 0-4.51 1.649-5.31 4.366-1.22-1.834-2.148-4.036-2.687-5.892H7.828v7.112c0 .956-.777 1.733-1.733 1.733H4.295V0H1.376v17.845h3.562v-1.327h.006c.377 0 .74-.095 1.058-.273l1.281 1.625h4.122v-1.464h-2.509l-1.417-1.797c.81-.497 1.35-1.396 1.35-2.435V8.521c0-1.42 1.152-2.58 2.58-2.58 1.42 0 2.58 1.16 2.58 2.58v4.466c0 .872-.35 1.705-.971 2.313l-.002.001c1.02.504 2.16.793 3.346.793 3.727 0 6.752-3.025 6.752-6.753 0-3.729-3.025-6.754-6.753-6.754z"/>
</svg>
